<svg width="290" height="19" viewBox="0 0 290 19" fill="none" xmlns="http://www.w3.org/2000/svg">
<path d="M33.4961 9.03125C33.0977 10.2812 32.1445 10.9062 30.6367 10.9062H23.6758L21.4727 17H17.2773L19.4805 10.9062H15.8828C11.9453 15.6562 8.09766 18.0312 4.33984 18.0312C3.24609 18.0312 2.32422 17.8281 1.57422 17.4219C0.628906 16.9062 0.15625 16.1484 0.15625 15.1484C0.15625 14.2969 0.507812 13.4648 1.21094 12.6523C2.34375 11.3477 4.05859 10.3828 6.35547 9.75781C8.15234 9.27344 10.1367 9.03125 12.3086 9.03125H14.582L21.6836 0.511719H27.332L24.3086 9.03125H33.4961ZM22.5742 2.45703L17.4414 9.03125H20.0547L22.5742 2.45703ZM13 10.9062C10.0703 10.9062 8.01562 11.3281 6.83594 12.1719C5.85938 12.875 5.37109 13.6211 5.37109 14.4102C5.37109 15.082 5.72266 15.418 6.42578 15.418C7.39453 15.418 8.60547 14.8711 10.0586 13.7773C11.332 12.832 12.3125 11.875 13 10.9062ZM43.0117 15.125C42.8477 15.7734 42.4883 16.2656 41.9336 16.6016C41.4961 16.8672 41.0312 17 40.5391 17H35.6406C34.4922 17 33.918 16.6328 33.918 15.8984C33.3086 16.6328 32.4844 17 31.4453 17H29.3828C28.75 17 28.2578 16.8359 27.9062 16.5078C27.5781 16.2031 27.4141 15.8008 27.4141 15.3008C27.4141 15.0195 27.4688 14.7305 27.5781 14.4336L29.5469 9.03125H33.8008L31.6094 15.125H33.9883L36.168 9.03125H40.375L38.2422 15.125H43.0117ZM53.3945 15.125C53.0273 16.375 52.0508 17 50.4648 17H44.4883C43.332 17 42.7539 16.5938 42.7539 15.7812C42.7539 15.5781 42.7969 15.3594 42.8828 15.125L44.3711 10.9062H42.4492L43.1875 9.03125C44.5547 8.67969 45.5703 8.23047 46.2344 7.68359C46.9844 7.06641 47.7852 5.94922 48.6367 4.33203H50.9219L49.2695 9.03125H52.293C51.8086 10.2812 50.8242 10.9062 49.3398 10.9062H48.5664L47.1016 15.125H53.3945ZM73.3516 9.03125C73.0391 10.2812 72.1016 10.9062 70.5391 10.9062H63.2031C63.4609 11.0781 63.6719 11.3945 63.8359 11.8555C64 12.3086 64.0664 12.7031 64.0352 13.0391C63.9258 14.3438 63.3516 15.3672 62.3125 16.1094C61.3203 16.8203 60.0312 17.1797 58.4453 17.1875C56.6016 17.2031 55.1836 16.8398 54.1914 16.0977C53.3086 15.4414 52.8672 14.5781 52.8672 13.5078C52.8672 13.2969 52.8867 13.0859 52.9258 12.875C53.1289 11.6953 53.7148 10.7695 54.6836 10.0977C55.7148 9.38672 57.0898 9.03125 58.8086 9.03125H73.3516ZM60.5781 10.9062H57.8945L56.8398 13.9062C56.7852 14.0625 56.7578 14.2109 56.7578 14.3516C56.7578 15.0234 57.3828 15.3594 58.6328 15.3594C58.7812 15.3594 58.9102 15.3555 59.0195 15.3477L60.5781 10.9062ZM95.7578 3.32422C95.7578 4.09766 95.4531 4.75781 94.8438 5.30469C94.2422 5.85156 93.5078 6.125 92.6406 6.125C91.7891 6.125 91.0586 5.85156 90.4492 5.30469C89.8477 4.75781 89.5469 4.09766 89.5469 3.32422C89.5469 2.96484 89.6016 2.65234 89.7109 2.38672H88.3281C87.8828 2.38672 87.5039 2.57422 87.1914 2.94922C86.8867 3.31641 86.7344 3.72656 86.7344 4.17969C86.7344 4.54688 86.8594 5.07422 87.1094 5.76172C87.3594 6.44141 87.4844 6.96484 87.4844 7.33203C87.4844 7.76953 87.0312 8.20703 86.125 8.64453C84.8203 9.26953 83.9766 9.74219 83.5938 10.0625C82.6797 10.8281 82.2227 11.8359 82.2227 13.0859C82.2227 14.0234 82.7539 14.6328 83.8164 14.9141C84.3398 15.0547 85.25 15.125 86.5469 15.125H95.0898C94.9883 15.7266 94.6328 16.2031 94.0234 16.5547C93.4922 16.8516 92.8945 17 92.2305 17H82.6094C81.1719 17 79.957 16.7539 78.9648 16.2617C77.6836 15.6211 77.043 14.6602 77.043 13.3789C77.043 11.9883 77.7383 10.7188 79.1289 9.57031C80.2695 8.63281 81.6133 7.94922 83.1602 7.51953C82.7148 6.54297 82.4922 5.65625 82.4922 4.85938C82.4922 3.33594 83.2969 2.1875 84.9062 1.41406C86.1484 0.8125 87.625 0.511719 89.3359 0.511719H92.9102C93.6992 0.511719 94.3711 0.792969 94.9258 1.35547C95.4805 1.91016 95.7578 2.56641 95.7578 3.32422ZM104.195 15.125C104 15.8125 103.551 16.3203 102.848 16.6484C102.355 16.8828 101.828 17 101.266 17H96.7539C95.5977 17 95.0195 16.6055 95.0195 15.8164C95.0195 15.6133 95.0625 15.3828 95.1484 15.125L99.4961 2.86719H103.645L99.2734 15.125H104.195ZM118.832 15.125C118.668 15.7266 118.293 16.1992 117.707 16.543C117.184 16.8477 116.586 17 115.914 17H109.387C105.59 17 103.691 15.8555 103.691 13.5664C103.691 12.0977 104.34 10.9453 105.637 10.1094C106.754 9.39062 108.082 9.03125 109.621 9.03125H111.32C112.312 9.03125 113.184 9.18359 113.934 9.48828C114.934 9.89453 115.457 10.5117 115.504 11.3398C115.543 12.1758 115.141 12.8711 114.297 13.4258H110.418L111.684 10.9062H109.211L108.25 13.7305C108.195 13.8945 108.168 14.043 108.168 14.1758C108.168 14.8086 108.676 15.125 109.691 15.125H118.832ZM114.695 3.99219L111.086 7.61328H109.34L111.473 3.99219H114.695ZM129.191 15.125C128.824 16.375 127.848 17 126.262 17H120.285C119.129 17 118.551 16.5938 118.551 15.7812C118.551 15.5781 118.594 15.3594 118.68 15.125L120.168 10.9062H118.246L118.984 9.03125C120.352 8.67969 121.367 8.23047 122.031 7.68359C122.781 7.06641 123.582 5.94922 124.434 4.33203H126.719L125.066 9.03125H128.09C127.605 10.2812 126.621 10.9062 125.137 10.9062H124.363L122.898 15.125H129.191ZM142.926 15.125C142.926 15.6719 142.625 16.1328 142.023 16.5078C141.492 16.8359 140.938 17 140.359 17H135.871C134.684 17 134.09 16.5078 134.09 15.5234C134.09 15.2734 134.141 15.0039 134.242 14.7148L135.566 10.9062H133.07L131.77 14.2695C131.551 14.8398 131.078 15.125 130.352 15.125H129.109L130.645 10.9062C130.16 10.7969 129.766 10.5547 129.461 10.1797C129.164 9.79688 129.016 9.35938 129.016 8.86719C129.016 7.96875 129.434 7.27344 130.27 6.78125C130.965 6.375 131.793 6.17188 132.754 6.17188H134.652L133.668 9.03125H140.148L138.016 15.125H142.926ZM151.023 4.22656C151.023 5.00781 150.719 5.67188 150.109 6.21875C149.508 6.76562 148.781 7.03906 147.93 7.03906C147.062 7.03906 146.324 6.76562 145.715 6.21875C145.113 5.67188 144.812 5.00781 144.812 4.22656C144.812 3.45312 145.113 2.79297 145.715 2.24609C146.324 1.69922 147.062 1.42578 147.93 1.42578C148.781 1.42578 149.508 1.69922 150.109 2.24609C150.719 2.79297 151.023 3.45312 151.023 4.22656ZM151.867 15.125C151.664 15.8125 151.242 16.3203 150.602 16.6484C150.141 16.8828 149.641 17 149.102 17H144.473C143.355 17 142.797 16.5312 142.797 15.5938C142.797 15.3281 142.852 15.043 142.961 14.7383L145 9.03125H149.254L147.086 15.125H151.867ZM166.527 15.125C166.355 15.7344 165.996 16.207 165.449 16.543C164.949 16.8477 164.367 17 163.703 17H156.648C155.305 17 154.176 16.7734 153.262 16.3203C152.105 15.75 151.527 14.8906 151.527 13.7422C151.527 13.6172 151.535 13.4883 151.551 13.3555C151.707 11.957 152.434 10.8633 153.73 10.0742C154.871 9.37891 156.219 9.03125 157.773 9.03125H160.727C161.391 9.03125 161.957 9.24219 162.426 9.66406C162.895 10.0859 163.129 10.6016 163.129 11.2109C163.129 11.8281 162.891 12.3516 162.414 12.7812C161.945 13.2109 161.383 13.4258 160.727 13.4258C160.062 13.4258 159.496 13.2109 159.027 12.7812C158.566 12.3438 158.34 11.8125 158.348 11.1875C158.348 11.1875 158.348 11.0938 158.348 10.9062H156.93L156.016 13.4961C155.938 13.7148 155.898 13.9141 155.898 14.0938C155.898 14.7812 156.441 15.125 157.527 15.125H166.527ZM181.516 15.125C181.141 16.375 180.184 17 178.645 17H174.203C172.938 17 172.305 16.5938 172.305 15.7812C171.453 16.75 170.406 17.2344 169.164 17.2344C168.25 17.2344 167.508 16.9531 166.938 16.3906C166.367 15.8281 166.082 15.0938 166.082 14.1875C166.082 12.5547 166.707 11.2656 167.957 10.3203C169.09 9.46094 170.492 9.03125 172.164 9.03125H178.855L176.652 15.125H181.516ZM173.957 10.9062H171.367L170.547 13.6367C170.5 13.8086 170.477 13.9648 170.477 14.1055C170.477 14.7852 171.141 15.125 172.469 15.125L173.957 10.9062ZM217.773 15.125C217.445 16.375 216.359 17 214.516 17H210.309C208.996 17 208.34 16.6211 208.34 15.8633C208.34 15.5977 208.422 15.25 208.586 14.8203L210.531 9.75781L204.719 16.1328C204.094 16.8281 203.41 17.1758 202.668 17.1758C202.527 17.1758 202.379 17.1641 202.223 17.1406C201.332 17.0391 200.887 16.5938 200.887 15.8047C200.887 15.5 200.957 15.1719 201.098 14.8203L203.98 7.37891L196.75 16.1094C196.266 16.7031 195.555 17 194.617 17H192.238L196.973 3.46484H190.469L192.238 0.511719H200.066C201.145 0.511719 201.684 0.90625 201.684 1.69531C201.684 2 201.609 2.36719 201.461 2.79688L198.941 10.0625L203.98 4.35547C204.621 3.62109 205.113 3.14453 205.457 2.92578C206.027 2.56641 206.766 2.38672 207.672 2.38672C207.93 2.38672 208.199 2.47656 208.48 2.65625C208.91 2.9375 209.125 3.35547 209.125 3.91016C209.125 4.25391 209.039 4.64062 208.867 5.07031L206.594 10.9766L211.105 6.44141C211.746 5.80078 212.172 5.41406 212.383 5.28125C212.75 5.07031 213.277 4.96875 213.965 4.97656C214.238 4.97656 214.527 5.07812 214.832 5.28125C215.301 5.58594 215.535 6.03125 215.535 6.61719C215.535 6.95312 215.457 7.32422 215.301 7.73047L212.5 15.125H217.773ZM232.891 15.125C232.516 16.375 231.559 17 230.02 17H225.578C224.312 17 223.68 16.5938 223.68 15.7812C222.828 16.75 221.781 17.2344 220.539 17.2344C219.625 17.2344 218.883 16.9531 218.312 16.3906C217.742 15.8281 217.457 15.0938 217.457 14.1875C217.457 12.5547 218.082 11.2656 219.332 10.3203C220.465 9.46094 221.867 9.03125 223.539 9.03125H230.23L228.027 15.125H232.891ZM225.332 10.9062H222.742L221.922 13.6367C221.875 13.8086 221.852 13.9648 221.852 14.1055C221.852 14.7852 222.516 15.125 223.844 15.125L225.332 10.9062ZM246.59 15.125C246.59 15.6719 246.289 16.1328 245.688 16.5078C245.156 16.8359 244.602 17 244.023 17H239.535C238.348 17 237.754 16.5078 237.754 15.5234C237.754 15.2734 237.805 15.0039 237.906 14.7148L239.23 10.9062H236.734L235.434 14.2695C235.215 14.8398 234.742 15.125 234.016 15.125H232.773L234.309 10.9062C233.824 10.7969 233.43 10.5547 233.125 10.1797C232.828 9.79688 232.68 9.35938 232.68 8.86719C232.68 7.96875 233.098 7.27344 233.934 6.78125C234.629 6.375 235.457 6.17188 236.418 6.17188H238.316L237.332 9.03125H243.812L241.68 15.125H246.59ZM261.262 15.125C261.09 15.7344 260.73 16.207 260.184 16.543C259.684 16.8477 259.102 17 258.438 17H251.383C250.039 17 248.91 16.7734 247.996 16.3203C246.84 15.75 246.262 14.8906 246.262 13.7422C246.262 13.6172 246.27 13.4883 246.285 13.3555C246.441 11.957 247.168 10.8633 248.465 10.0742C249.605 9.37891 250.953 9.03125 252.508 9.03125H255.461C256.125 9.03125 256.691 9.24219 257.16 9.66406C257.629 10.0859 257.863 10.6016 257.863 11.2109C257.863 11.8281 257.625 12.3516 257.148 12.7812C256.68 13.2109 256.117 13.4258 255.461 13.4258C254.797 13.4258 254.23 13.2109 253.762 12.7812C253.301 12.3438 253.074 11.8125 253.082 11.1875C253.082 11.1875 253.082 11.0938 253.082 10.9062H251.664L250.75 13.4961C250.672 13.7148 250.633 13.9141 250.633 14.0938C250.633 14.7812 251.176 15.125 252.262 15.125H261.262ZM281.055 9.03125C280.742 10.2812 279.805 10.9062 278.242 10.9062H270.906C271.164 11.0781 271.375 11.3945 271.539 11.8555C271.703 12.3086 271.77 12.7031 271.738 13.0391C271.629 14.3438 271.055 15.3672 270.016 16.1094C269.023 16.8203 267.734 17.1797 266.148 17.1875C264.305 17.2031 262.887 16.8398 261.895 16.0977C261.012 15.4414 260.57 14.5781 260.57 13.5078C260.57 13.2969 260.59 13.0859 260.629 12.875C260.832 11.6953 261.418 10.7695 262.387 10.0977C263.418 9.38672 264.793 9.03125 266.512 9.03125H281.055ZM268.281 10.9062H265.598L264.543 13.9062C264.488 14.0625 264.461 14.2109 264.461 14.3516C264.461 15.0234 265.086 15.3594 266.336 15.3594C266.484 15.3594 266.613 15.3555 266.723 15.3477L268.281 10.9062ZM289.211 15.125C289.18 15.6484 288.879 16.0938 288.309 16.4609C287.746 16.8203 287.129 17 286.457 17H277.551C275.84 17 274.984 16.4766 274.984 15.4297C274.984 15.3359 274.992 15.2344 275.008 15.125C275.07 14.6562 275.32 14.293 275.758 14.0352C276.133 13.8086 276.562 13.6992 277.047 13.707C277.891 13.7305 279.035 14.1953 280.48 15.1016C280.895 14.5859 281.102 14.0625 281.102 13.5312C281.102 13.2656 280.934 12.6602 280.598 11.7148L279.273 12.9219H276.93L280.047 10.0391C279.906 9.79688 279.809 9.59766 279.754 9.44141C279.652 9.15234 279.598 8.82422 279.59 8.45703L282.473 5.38672C283.77 5.60547 284.418 6.19531 284.418 7.15625C284.418 7.71875 284.25 8.23828 283.914 8.71484C284.203 9.48047 284.496 10.2461 284.793 11.0117C285.152 11.9961 285.332 12.793 285.332 13.4023C285.332 14.0742 285.066 14.6484 284.535 15.125H289.211Z" fill="white"/>
</svg>
